<svg xmlns="http://www.w3.org/2000/svg" xmlns:xlink="http://www.w3.org/1999/xlink" width="100" height="100" viewBox="0 0 100 100"><rect width="100%" height="100%" fill="#44CC00" rx="5" ry="5"></rect><g transform="translate(50 50) scale(0.69 0.69) rotate(0) translate(-50 -50)" style="fill:#FF8400"><svg fill="#FF8400" xmlns="http://www.w3.org/2000/svg" data-name="Layer 1" viewBox="0 0 100 100" x="0px" y="0px"><title>beats, beats, drum-machine, ;oops</title><path d="M10,18V82a4,4,0,0,0,4,4H86a4.0002,4.0002,0,0,0,4-4V18a4,4,0,0,0-4-4H14A3.99988,3.99988,0,0,0,10,18ZM65,53.99441a3.00077,3.00077,0,0,1,3-3h3V43.47876a3,3,0,1,1,6,0v7.51565h3a3,3,0,0,1,0,6H77V75.47876a3,3,0,0,1-6,0V56.99441H68A3.00077,3.00077,0,0,1,65,53.99441ZM42.00024,69.99976a8.08615,8.08615,0,1,1,8.0857,8A8.04309,8.04309,0,0,1,42.00024,69.99976Zm0-20a8.08615,8.08615,0,1,1,8.0857,8A8.04309,8.04309,0,0,1,42.00024,49.99976ZM18,69.99976a8.08615,8.08615,0,1,1,8.08569,8A8.04309,8.04309,0,0,1,18,69.99976Zm0-20a8.08615,8.08615,0,1,1,8.08569,8A8.04309,8.04309,0,0,1,18,49.99976ZM18,26a4.0002,4.0002,0,0,1,4-4H77.99976a4,4,0,0,1,4,4v4a4,4,0,0,1-4,4H22a4.0002,4.0002,0,0,1-4-4Z"></path></svg></g></svg>